<svg width="1018" height="134" viewBox="0 0 1018 134" fill="none" xmlns="http://www.w3.org/2000/svg">
<path d="M131.3 57.7872C94.2329 66.8927 74.2274 74.1703 40.0127 91.2593C73.7808 85.4386 89.8059 82.8243 107.425 80.6091L94.5511 102.963C121.233 95.8599 141.878 86.7965 181.157 64.9264L122.405 82.0135L131.3 57.7872Z" fill="black"/>
<circle cx="125.214" cy="41.7534" r="11.7035" fill="black"/>
<path d="M224.564 45.8236H239.176V93.0063H224.564V45.8236ZM254.889 45.8236H270.144L280.765 79.7784L291.225 45.8236H306.03L288.522 93.0063H272.719L254.889 45.8236ZM345.978 85.2177H329.37L327.085 93.0063H312.184L329.918 45.8236H345.817L363.551 93.0063H348.295L345.978 85.2177ZM342.92 75.0151L337.706 58.0538L332.525 75.0151H342.92ZM378.137 45.8236H392.716V81.3877H415.471V93.0063H378.137V45.8236ZM428.995 69.4472C428.995 61.7443 431.14 55.7472 435.432 51.4559C439.723 47.1646 445.699 45.019 453.359 45.019C461.212 45.019 467.262 47.1325 471.511 51.3594C475.759 55.5648 477.883 61.4654 477.883 69.061C477.883 74.5753 476.95 79.1026 475.083 82.6429C473.238 86.1617 470.556 88.9082 467.037 90.8822C463.54 92.8347 459.173 93.811 453.938 93.811C448.617 93.811 444.207 92.9634 440.71 91.2684C437.234 89.5733 434.413 86.8913 432.246 83.2222C430.078 79.5532 428.995 74.9615 428.995 69.4472ZM443.575 69.5115C443.575 74.2749 444.454 77.6972 446.214 79.7784C447.995 81.8597 450.408 82.9004 453.455 82.9004C456.588 82.9004 459.012 81.8812 460.729 79.8428C462.445 77.8045 463.304 74.1461 463.304 68.8678C463.304 64.4264 462.403 61.1864 460.6 59.1481C458.819 57.0883 456.395 56.0583 453.326 56.0583C450.387 56.0583 448.027 57.099 446.246 59.1803C444.465 61.2615 443.575 64.7053 443.575 69.5115ZM495.817 93.0063V45.8236H520.116C524.622 45.8236 528.066 46.2098 530.447 46.9823C532.829 47.7547 534.749 49.1923 536.208 51.295C537.667 53.3763 538.397 55.9189 538.397 58.9228C538.397 61.5405 537.839 63.8041 536.723 65.7137C535.608 67.6019 534.074 69.136 532.121 70.3162C530.877 71.0671 529.171 71.6894 527.004 72.1829C528.742 72.7622 530.008 73.3415 530.801 73.9208C531.338 74.3071 532.11 75.1331 533.119 76.3991C534.149 77.665 534.835 78.6413 535.179 79.3279L542.227 93.0063H525.748L517.96 78.5876C516.973 76.7209 516.093 75.5086 515.321 74.9507C514.269 74.2212 513.078 73.8565 511.748 73.8565H510.461V93.0063H495.817ZM510.461 64.9413H516.608C517.273 64.9413 518.561 64.7267 520.47 64.2976C521.436 64.1045 522.219 63.611 522.82 62.8171C523.442 62.0232 523.753 61.1113 523.753 60.0814C523.753 58.558 523.27 57.3886 522.305 56.5733C521.339 55.758 519.526 55.3503 516.865 55.3503H510.461V64.9413ZM585.844 85.2177H569.236L566.951 93.0063H552.05L569.783 45.8236H585.683L603.416 93.0063H588.161L585.844 85.2177ZM582.786 75.0151L577.572 58.0538L572.39 75.0151H582.786ZM673.624 75.9163V66.1H696.153V86.2154C691.841 89.1549 688.021 91.1611 684.696 92.2339C681.391 93.2853 677.465 93.811 672.916 93.811C667.316 93.811 662.746 92.8562 659.205 90.9465C655.687 89.0369 652.951 86.1939 650.998 82.4176C649.067 78.6413 648.102 74.3071 648.102 69.415C648.102 64.2654 649.164 59.7918 651.288 55.994C653.412 52.1747 656.523 49.2781 660.621 47.3041C663.819 45.7807 668.121 45.019 673.528 45.019C678.741 45.019 682.636 45.491 685.211 46.4351C687.807 47.3792 689.952 48.849 691.648 50.8444C693.364 52.8184 694.651 55.3288 695.51 58.3756L681.445 60.886C680.866 59.1052 679.879 57.7427 678.484 56.7986C677.111 55.8545 675.351 55.3825 673.206 55.3825C670.009 55.3825 667.455 56.4982 665.546 58.7297C663.658 60.9397 662.713 64.4478 662.713 69.2541C662.713 74.3607 663.668 78.0083 665.578 80.1968C667.509 82.3854 670.191 83.4797 673.624 83.4797C675.255 83.4797 676.81 83.2437 678.291 82.7716C679.771 82.2996 681.466 81.495 683.376 80.3578V75.9163H673.624ZM743.729 85.2177H727.121L724.836 93.0063H709.935L727.669 45.8236H743.568L761.302 93.0063H746.046L743.729 85.2177ZM740.671 75.0151L735.457 58.0538L730.276 75.0151H740.671ZM776.081 45.8236H797.741C802.011 45.8236 805.455 46.4029 808.072 47.5616C810.712 48.7202 812.889 50.3831 814.606 52.5502C816.322 54.7173 817.567 57.2384 818.339 60.1136C819.112 62.9888 819.498 66.0356 819.498 69.2541C819.498 74.2963 818.919 78.2121 817.76 81.0015C816.623 83.7693 815.035 86.0974 812.997 87.9855C810.958 89.8522 808.77 91.0967 806.431 91.719C803.234 92.5772 800.337 93.0063 797.741 93.0063H776.081V45.8236ZM790.66 56.5089V82.2889H794.233C797.28 82.2889 799.447 81.9563 800.734 81.2911C802.022 80.6045 803.03 79.4244 803.76 77.7508C804.489 76.0558 804.854 73.3201 804.854 69.5437C804.854 64.5444 804.039 61.1221 802.408 59.2768C800.777 57.4316 798.074 56.5089 794.297 56.5089H790.66ZM860.797 75.9163V66.1H883.327V86.2154C879.014 89.1549 875.195 91.1611 871.869 92.2339C868.564 93.2853 864.638 93.811 860.089 93.811C854.489 93.811 849.919 92.8562 846.379 90.9465C842.86 89.0369 840.124 86.1939 838.171 82.4176C836.24 78.6413 835.275 74.3071 835.275 69.415C835.275 64.2654 836.337 59.7918 838.461 55.994C840.585 52.1747 843.696 49.2781 847.795 47.3041C850.992 45.7807 855.294 45.019 860.701 45.019C865.915 45.019 869.809 45.491 872.384 46.4351C874.98 47.3792 877.126 48.849 878.821 50.8444C880.537 52.8184 881.825 55.3288 882.683 58.3756L868.618 60.886C868.039 59.1052 867.052 57.7427 865.657 56.7986C864.284 55.8545 862.524 55.3825 860.379 55.3825C857.182 55.3825 854.629 56.4982 852.719 58.7297C850.831 60.9397 849.887 64.4478 849.887 69.2541C849.887 74.3607 850.841 78.0083 852.751 80.1968C854.682 82.3854 857.364 83.4797 860.797 83.4797C862.428 83.4797 863.984 83.2437 865.464 82.7716C866.945 82.2996 868.64 81.495 870.549 80.3578V75.9163H860.797ZM901.839 45.8236H940.911V55.8974H916.451V63.3964H939.141V73.0197H916.451V82.321H941.619V93.0063H901.839V45.8236ZM956.077 45.8236H1000.4V57.4745H985.526V93.0063H970.946V57.4745H956.077V45.8236Z" fill="black"/>
</svg>
