<svg width="575" height="343" viewBox="0 0 575 343" fill="none" xmlns="http://www.w3.org/2000/svg">
<path d="M353.416 88.5156C235.124 117.574 171.28 140.799 62.0911 195.335C169.855 176.759 220.996 168.416 277.223 161.347L236.139 232.684C321.288 210.017 387.172 181.093 512.524 111.299L325.031 165.829L353.416 88.5156Z" fill="black"/>
<circle cx="333.994" cy="37.3494" r="37.3494" fill="black"/>
<path d="M3.92168 291.8H14.5196V326.021H3.92168V291.8ZM25.9158 291.8H36.9805L44.6838 316.427L52.2704 291.8H63.0084L50.3096 326.021H38.848L25.9158 291.8ZM94.7366 320.372H82.6915L81.0341 326.021H70.2261L83.0883 291.8H94.6199L107.482 326.021H96.4174L94.7366 320.372ZM92.519 312.973L88.7374 300.671L84.9791 312.973H92.519ZM118.061 291.8H128.636V317.595H145.14V326.021H118.061V291.8ZM155.789 308.934C155.789 303.347 157.345 298.998 160.457 295.885C163.57 292.773 167.904 291.217 173.46 291.217C179.156 291.217 183.544 292.749 186.625 295.815C189.707 298.865 191.247 303.145 191.247 308.654C191.247 312.654 190.57 315.937 189.216 318.505C187.878 321.057 185.933 323.049 183.381 324.481C180.844 325.897 177.677 326.605 173.88 326.605C170.02 326.605 166.822 325.99 164.286 324.761C161.765 323.532 159.718 321.586 158.146 318.925C156.575 316.264 155.789 312.934 155.789 308.934ZM166.363 308.981C166.363 312.436 167.001 314.918 168.278 316.427C169.569 317.937 171.32 318.692 173.53 318.692C175.802 318.692 177.56 317.952 178.805 316.474C180.05 314.996 180.673 312.342 180.673 308.514C180.673 305.293 180.019 302.943 178.712 301.464C177.42 299.97 175.662 299.223 173.436 299.223C171.304 299.223 169.593 299.978 168.301 301.488C167.009 302.997 166.363 305.495 166.363 308.981ZM204.254 326.021V291.8H221.879C225.147 291.8 227.644 292.08 229.372 292.641C231.099 293.201 232.492 294.243 233.55 295.769C234.608 297.278 235.138 299.122 235.138 301.301C235.138 303.199 234.733 304.841 233.924 306.226C233.114 307.596 232.002 308.709 230.586 309.564C229.683 310.109 228.446 310.56 226.874 310.918C228.135 311.339 229.053 311.759 229.628 312.179C230.018 312.459 230.578 313.058 231.309 313.976C232.056 314.894 232.554 315.603 232.803 316.101L237.915 326.021H225.964L220.314 315.564C219.599 314.21 218.961 313.33 218.4 312.926C217.638 312.397 216.774 312.132 215.809 312.132H214.876V326.021H204.254ZM214.876 305.666H219.334C219.817 305.666 220.75 305.51 222.135 305.199C222.836 305.059 223.404 304.701 223.839 304.125C224.291 303.55 224.516 302.888 224.516 302.141C224.516 301.036 224.166 300.188 223.466 299.597C222.766 299.005 221.451 298.71 219.521 298.71H214.876V305.666ZM269.55 320.372H257.505L255.848 326.021H245.04L257.902 291.8H269.434L282.296 326.021H271.231L269.55 320.372ZM267.333 312.973L263.551 300.671L259.793 312.973H267.333ZM333.217 313.626V306.506H349.557V321.096C346.429 323.228 343.659 324.683 341.247 325.461C338.85 326.224 336.003 326.605 332.703 326.605C328.642 326.605 325.327 325.913 322.759 324.528C320.207 323.142 318.223 321.08 316.807 318.342C315.406 315.603 314.706 312.459 314.706 308.911C314.706 305.176 315.476 301.931 317.017 299.177C318.557 296.407 320.814 294.306 323.786 292.874C326.105 291.769 329.225 291.217 333.147 291.217C336.929 291.217 339.753 291.559 341.621 292.244C343.504 292.928 345.06 293.994 346.289 295.442C347.534 296.873 348.468 298.694 349.09 300.904L338.889 302.725C338.469 301.433 337.753 300.445 336.742 299.76C335.746 299.075 334.47 298.733 332.913 298.733C330.595 298.733 328.743 299.542 327.358 301.161C325.988 302.764 325.304 305.308 325.304 308.794C325.304 312.498 325.996 315.143 327.381 316.731C328.782 318.318 330.727 319.112 333.217 319.112C334.4 319.112 335.528 318.941 336.602 318.598C337.676 318.256 338.905 317.672 340.29 316.848V313.626H333.217ZM384.063 320.372H372.018L370.361 326.021H359.553L372.415 291.8H383.947L396.809 326.021H385.744L384.063 320.372ZM381.846 312.973L378.064 300.671L374.306 312.973H381.846ZM407.528 291.8H423.238C426.335 291.8 428.833 292.22 430.731 293.061C432.646 293.901 434.225 295.107 435.47 296.679C436.715 298.251 437.618 300.079 438.178 302.165C438.738 304.25 439.018 306.46 439.018 308.794C439.018 312.451 438.598 315.291 437.758 317.314C436.933 319.322 435.781 321.01 434.303 322.38C432.825 323.734 431.237 324.636 429.541 325.088C427.222 325.71 425.121 326.021 423.238 326.021H407.528V291.8ZM418.103 299.55V318.248H420.694C422.904 318.248 424.475 318.007 425.409 317.525C426.343 317.027 427.074 316.171 427.603 314.957C428.133 313.727 428.397 311.743 428.397 309.004C428.397 305.378 427.806 302.896 426.623 301.558C425.44 300.219 423.479 299.55 420.74 299.55H418.103ZM468.972 313.626V306.506H485.313V321.096C482.185 323.228 479.415 324.683 477.003 325.461C474.606 326.224 471.758 326.605 468.459 326.605C464.397 326.605 461.082 325.913 458.515 324.528C455.962 323.142 453.978 321.08 452.562 318.342C451.162 315.603 450.461 312.459 450.461 308.911C450.461 305.176 451.232 301.931 452.772 299.177C454.313 296.407 456.569 294.306 459.542 292.874C461.861 291.769 464.981 291.217 468.902 291.217C472.684 291.217 475.509 291.559 477.376 292.244C479.259 292.928 480.815 293.994 482.045 295.442C483.29 296.873 484.223 298.694 484.846 300.904L474.645 302.725C474.225 301.433 473.509 300.445 472.497 299.76C471.501 299.075 470.225 298.733 468.669 298.733C466.35 298.733 464.498 299.542 463.113 301.161C461.744 302.764 461.059 305.308 461.059 308.794C461.059 312.498 461.752 315.143 463.137 316.731C464.537 318.318 466.483 319.112 468.972 319.112C470.155 319.112 471.283 318.941 472.357 318.598C473.431 318.256 474.66 317.672 476.046 316.848V313.626H468.972ZM498.74 291.8H527.079V299.107H509.338V304.546H525.795V311.525H509.338V318.271H527.592V326.021H498.74V291.8ZM538.078 291.8H570.222V300.25H559.437V326.021H548.863V300.25H538.078V291.8Z" fill="black"/>
</svg>
